<svg width="512" height="512" viewBox="0 0 512 512" fill="none" xmlns="http://www.w3.org/2000/svg">
<g clip-path="url(#clip0_3_155)">
<path d="M393.975 32H119.025C78.1421 32 45 65.1421 45 106.025V380.975C45 421.858 78.1421 455 119.025 455H393.975C434.858 455 468 421.858 468 380.975V106.025C468 65.1421 434.858 32 393.975 32Z" fill="#1E90FF"/>
<path d="M351.675 338.647C351.675 341.452 350.561 344.142 348.578 346.125C346.594 348.108 343.905 349.222 341.1 349.222H171.9C169.095 349.222 166.406 348.108 164.422 346.125C162.439 344.142 161.325 341.452 161.325 338.647V225.643C161.324 224.046 161.686 222.469 162.382 221.031C163.078 219.593 164.09 218.332 165.344 217.342L249.944 150.603C251.81 149.128 254.12 148.325 256.5 148.325C258.88 148.325 261.19 149.128 263.057 150.603L347.657 217.331C348.911 218.323 349.925 219.586 350.621 221.025C351.317 222.465 351.677 224.044 351.675 225.643V338.647V338.647ZM203.625 254.047C203.625 268.071 209.196 281.52 219.112 291.436C229.028 301.352 242.477 306.922 256.5 306.922C270.523 306.922 283.972 301.352 293.888 291.436C303.804 281.52 309.375 268.071 309.375 254.047H288.225C288.225 262.461 284.883 270.531 278.933 276.48C272.983 282.43 264.914 285.772 256.5 285.772C248.086 285.772 240.017 282.43 234.067 276.48C228.117 270.531 224.775 262.461 224.775 254.047H203.625Z" fill="white"/>
</g>
<defs>
<clipPath id="clip0_3_155">
<rect width="512" height="512" fill="white"/>
</clipPath>
</defs>
</svg>
