<svg width="90" height="64" viewBox="0 0 90 64" fill="none" xmlns="http://www.w3.org/2000/svg">
<path d="M62.2469 4H27.8781C22.7678 4 18.625 8.14277 18.625 13.2531V47.6219C18.625 52.7322 22.7678 56.875 27.8781 56.875H62.2469C67.3572 56.875 71.5 52.7322 71.5 47.6219V13.2531C71.5 8.14277 67.3572 4 62.2469 4Z" fill="#1E90FF"/>
<path d="M56.9594 42.331C56.9594 42.6815 56.8201 43.0178 56.5722 43.2657C56.3243 43.5136 55.9881 43.6528 55.6375 43.6528H34.4875C34.1369 43.6528 33.8007 43.5136 33.5528 43.2657C33.3049 43.0178 33.1656 42.6815 33.1656 42.331V28.2054C33.1655 28.0057 33.2107 27.8086 33.2977 27.6289C33.3847 27.4492 33.5113 27.2915 33.6679 27.1677L44.2429 18.8254C44.4763 18.641 44.7651 18.5406 45.0625 18.5406C45.3599 18.5406 45.6487 18.641 45.8821 18.8254L56.4571 27.1664C56.6139 27.2903 56.7406 27.4482 56.8276 27.6282C56.9146 27.8082 56.9596 28.0055 56.9594 28.2054V42.331V42.331ZM38.4531 31.756C38.4531 33.5089 39.1495 35.19 40.389 36.4295C41.6285 37.669 43.3096 38.3653 45.0625 38.3653C46.8154 38.3653 48.4965 37.669 49.736 36.4295C50.9755 35.19 51.6719 33.5089 51.6719 31.756H49.0281C49.0281 32.8077 48.6103 33.8164 47.8666 34.5601C47.1229 35.3038 46.1142 35.7216 45.0625 35.7216C44.0107 35.7216 43.0021 35.3038 42.2584 34.5601C41.5147 33.8164 41.0969 32.8077 41.0969 31.756H38.4531Z" fill="white"/>
</svg>
