<svg width="40" height="40" viewBox="0 0 40 40" fill="none" xmlns="http://www.w3.org/2000/svg">
<path d="M28.9319 4.1875H10.1365C7.34175 4.1875 5.07617 6.45307 5.07617 9.2478V28.0432C5.07617 30.8379 7.34175 33.1035 10.1365 33.1035H28.9319C31.7266 33.1035 33.9922 30.8379 33.9922 28.0432V9.2478C33.9922 6.45307 31.7266 4.1875 28.9319 4.1875Z" fill="#1E90FF"/>
<path d="M26.0403 25.1497C26.0403 25.3415 25.9641 25.5253 25.8286 25.6609C25.693 25.7965 25.5091 25.8726 25.3174 25.8726H13.751C13.5593 25.8726 13.3754 25.7965 13.2398 25.6609C13.1042 25.5253 13.0281 25.3415 13.0281 25.1497V17.4248C13.028 17.3156 13.0527 17.2078 13.1003 17.1096C13.1479 17.0113 13.2171 16.925 13.3028 16.8573L19.086 12.2951C19.2136 12.1943 19.3715 12.1394 19.5342 12.1394C19.6968 12.1394 19.8548 12.1943 19.9824 12.2951L25.7656 16.8566C25.8514 16.9244 25.9206 17.0107 25.9682 17.1092C26.0158 17.2076 26.0404 17.3155 26.0403 17.4248V25.1497V25.1497ZM15.9197 19.3665C15.9197 20.3252 16.3005 21.2445 16.9783 21.9224C17.6562 22.6002 18.5756 22.981 19.5342 22.981C20.4928 22.981 21.4122 22.6002 22.09 21.9224C22.7679 21.2445 23.1487 20.3252 23.1487 19.3665H21.7029C21.7029 19.9417 21.4744 20.4933 21.0677 20.9C20.661 21.3067 20.1094 21.5352 19.5342 21.5352C18.959 21.5352 18.4074 21.3067 18.0007 20.9C17.594 20.4933 17.3655 19.9417 17.3655 19.3665H15.9197Z" fill="white"/>
</svg>
