<svg width="42" height="30" viewBox="0 0 42 30" fill="none" xmlns="http://www.w3.org/2000/svg">
<path d="M29.0845 1.875H12.9741C10.5786 1.875 8.63672 3.81692 8.63672 6.2124V22.3228C8.63672 24.7182 10.5786 26.6602 12.9741 26.6602H29.0845C31.48 26.6602 33.4219 24.7182 33.4219 22.3228V6.2124C33.4219 3.81692 31.48 1.875 29.0845 1.875Z" fill="#1E90FF"/>
<path d="M26.606 19.8426C26.606 20.007 26.5407 20.1646 26.4245 20.2808C26.3083 20.397 26.1507 20.4623 25.9863 20.4623H16.0723C15.9079 20.4623 15.7503 20.397 15.6341 20.2808C15.5179 20.1646 15.4526 20.007 15.4526 19.8426V13.2213C15.4526 13.1277 15.4738 13.0353 15.5145 12.951C15.5553 12.8668 15.6147 12.7929 15.6881 12.7349L20.6451 8.82438C20.7545 8.73794 20.8899 8.69092 21.0293 8.69092C21.1687 8.69092 21.3041 8.73794 21.4135 8.82438L26.3705 12.7342C26.444 12.7923 26.5034 12.8663 26.5442 12.9507C26.585 13.0351 26.6061 13.1276 26.606 13.2213V19.8426V19.8426ZM17.9312 14.8856C17.9312 15.7073 18.2576 16.4953 18.8386 17.0763C19.4196 17.6573 20.2076 17.9837 21.0293 17.9837C21.851 17.9837 22.639 17.6573 23.22 17.0763C23.801 16.4953 24.1274 15.7073 24.1274 14.8856H22.8882C22.8882 15.3786 22.6923 15.8514 22.3437 16.2C21.9951 16.5486 21.5223 16.7445 21.0293 16.7445C20.5363 16.7445 20.0635 16.5486 19.7149 16.2C19.3663 15.8514 19.1704 15.3786 19.1704 14.8856H17.9312Z" fill="white"/>
</svg>
