<svg width="113" height="40" viewBox="0 0 113 40" fill="none" xmlns="http://www.w3.org/2000/svg">
<g clip-path="url(#clip0_22_9)">
<g clip-path="url(#clip1_22_9)">
<g clip-path="url(#clip2_22_9)">
<path d="M34.0691 0H8.46268C4.6552 0 1.56863 3.08657 1.56863 6.89405V32.5005C1.56863 36.308 4.6552 39.3946 8.46268 39.3946H34.0691C37.8766 39.3946 40.9632 36.308 40.9632 32.5005V6.89405C40.9632 3.08657 37.8766 0 34.0691 0Z" fill="#1E90FF"/>
<path d="M30.1297 28.5585C30.1297 28.8197 30.0259 29.0702 29.8412 29.2549C29.6565 29.4396 29.406 29.5434 29.1448 29.5434H13.387C13.1258 29.5434 12.8753 29.4396 12.6906 29.2549C12.5059 29.0702 12.4021 28.8197 12.4021 28.5585V18.0342C12.4021 17.8855 12.4357 17.7386 12.5005 17.6047C12.5653 17.4708 12.6597 17.3533 12.7764 17.2611L20.6553 11.0456C20.8292 10.9082 21.0443 10.8335 21.2659 10.8335C21.4875 10.8335 21.7026 10.9082 21.8765 11.0456L29.7554 17.2601C29.8723 17.3525 29.9667 17.4701 30.0315 17.6042C30.0963 17.7383 30.1299 17.8853 30.1297 18.0342V28.5585V28.5585ZM16.3416 20.6796C16.3416 21.9856 16.8604 23.2381 17.7839 24.1616C18.7074 25.0851 19.9599 25.6039 21.2659 25.6039C22.5719 25.6039 23.8244 25.0851 24.7479 24.1616C25.6714 23.2381 26.1902 21.9856 26.1902 20.6796H24.2205C24.2205 21.4632 23.9092 22.2147 23.3551 22.7688C22.801 23.3229 22.0495 23.6342 21.2659 23.6342C20.4823 23.6342 19.7308 23.3229 19.1767 22.7688C18.6226 22.2147 18.3113 21.4632 18.3113 20.6796H16.3416Z" fill="white"/>
<path d="M51.6933 3.93945C52.987 3.93945 54.1175 4.20168 55.0848 4.72613C56.0638 5.23893 56.8155 5.96151 57.34 6.89388C57.8644 7.82624 58.1266 8.89263 58.1266 10.093C58.1266 11.2818 57.8586 12.3424 57.3225 13.2747C56.798 14.2071 56.0463 14.9413 55.0673 15.4774C54.1 16.0019 52.9753 16.2641 51.6933 16.2641H46.8159V3.93945H51.6933ZM51.4311 13.2398C52.4334 13.2398 53.2201 12.9659 53.7912 12.4181C54.3622 11.8704 54.6478 11.0953 54.6478 10.093C54.6478 9.0791 54.3622 8.29825 53.7912 7.75048C53.2201 7.19107 52.4334 6.91136 51.4311 6.91136H50.2423V13.2398H51.4311Z" fill="#2D3436"/>
<path d="M67.4681 14.2537H63.0976L62.4333 16.2641H58.8321L63.3249 3.93945H67.2758L71.7511 16.2641H68.1324L67.4681 14.2537ZM66.6115 11.6314L65.2828 7.64559L63.9717 11.6314H66.6115Z" fill="#2D3436"/>
<path d="M79.1089 16.2641L76.6614 11.7189H76.2943V16.2641H72.8679V3.93945H78.2698C79.2604 3.93945 80.0995 4.11427 80.7871 4.46391C81.4748 4.80189 81.9934 5.2739 82.343 5.87993C82.6927 6.47431 82.8675 7.14445 82.8675 7.89034C82.8675 8.72946 82.6344 9.46953 82.1682 10.1105C81.7137 10.7399 81.0435 11.1886 80.1578 11.4566L82.9374 16.2641H79.1089ZM76.2943 9.37629H77.99C78.4562 9.37629 78.8059 9.26557 79.039 9.04414C79.272 8.8227 79.3886 8.5022 79.3886 8.08264C79.3886 7.68638 79.2662 7.37754 79.0215 7.1561C78.7884 6.92301 78.4446 6.80647 77.99 6.80647H76.2943V9.37629Z" fill="#2D3436"/>
<path d="M87.7822 3.93945V11.0895C87.7822 11.7538 87.9337 12.2666 88.2367 12.6279C88.5514 12.9892 89.0234 13.1698 89.6527 13.1698C90.2821 13.1698 90.7541 12.9892 91.0688 12.6279C91.3951 12.255 91.5582 11.7422 91.5582 11.0895V3.93945H94.9847V11.0895C94.9847 12.22 94.7458 13.1873 94.2679 13.9915C93.7901 14.784 93.1374 15.3842 92.31 15.7921C91.4941 16.1884 90.5851 16.3865 89.5828 16.3865C88.5805 16.3865 87.6831 16.1884 86.8906 15.7921C86.1098 15.3842 85.4921 14.784 85.0375 13.9915C84.5947 13.199 84.3732 12.2317 84.3732 11.0895V3.93945H87.7822Z" fill="#2D3436"/>
<path d="M50.2423 25.6226V27.633H54.1758V30.2378H50.2423V32.458H54.7002V35.2026H46.8159V22.878H54.7002V25.6226H50.2423Z" fill="#2D3436"/>
<path d="M61.0435 35.325C59.61 35.325 58.4329 34.987 57.5122 34.3111C56.5915 33.6235 56.0962 32.6445 56.0262 31.3741H59.6799C59.7149 31.8054 59.8431 32.12 60.0645 32.3182C60.286 32.5163 60.5715 32.6153 60.9211 32.6153C61.2358 32.6153 61.4922 32.5396 61.6903 32.3881C61.9001 32.2249 62.005 32.0035 62.005 31.7238C62.005 31.3625 61.836 31.0828 61.498 30.8846C61.16 30.6865 60.6123 30.4651 59.8547 30.2203C59.0506 29.9523 58.3979 29.6959 57.8968 29.4511C57.4073 29.1947 56.9761 28.8276 56.6031 28.3498C56.2418 27.8603 56.0612 27.2251 56.0612 26.4443C56.0612 25.6518 56.2593 24.9758 56.6556 24.4164C57.0518 23.8453 57.5996 23.4141 58.2989 23.1227C58.9981 22.8314 59.7906 22.6857 60.6764 22.6857C62.1099 22.6857 63.252 23.0237 64.1028 23.6996C64.9653 24.3639 65.4256 25.3021 65.4839 26.5142H61.7603C61.7486 26.1413 61.6321 25.8615 61.4106 25.6751C61.2008 25.4886 60.927 25.3954 60.589 25.3954C60.3326 25.3954 60.1228 25.4711 59.9596 25.6226C59.7965 25.7741 59.7149 25.9897 59.7149 26.2695C59.7149 26.5025 59.8023 26.7065 59.9771 26.8813C60.1636 27.0445 60.3908 27.1902 60.6589 27.3184C60.927 27.4349 61.3232 27.5864 61.8477 27.7729C62.6285 28.0409 63.2695 28.309 63.7707 28.5771C64.2835 28.8335 64.7205 29.2006 65.0818 29.6784C65.4547 30.1446 65.6412 30.739 65.6412 31.4615C65.6412 32.1958 65.4547 32.8543 65.0818 33.437C64.7205 34.0197 64.1902 34.4801 63.491 34.8181C62.8033 35.156 61.9875 35.325 61.0435 35.325Z" fill="#2D3436"/>
<path d="M76.5169 22.878V25.6051H73.2304V35.2026H69.8039V25.6051H66.5523V22.878H76.5169Z" fill="#2D3436"/>
<path d="M85.5815 33.1922H81.2111L80.5468 35.2026H76.9455L81.4383 22.878H85.3892L89.8646 35.2026H86.2458L85.5815 33.1922ZM84.7249 30.57L83.3963 26.5841L82.0852 30.57H84.7249Z" fill="#2D3436"/>
<path d="M100.264 22.878V25.6051H96.9776V35.2026H93.5512V25.6051H90.2996V22.878H100.264Z" fill="#2D3436"/>
<path d="M104.958 25.6226V27.633H108.892V30.2378H104.958V32.458H109.416V35.2026H101.532V22.878H109.416V25.6226H104.958Z" fill="#2D3436"/>
</g>
</g>
</g>
<defs>
<clipPath id="clip0_22_9">
<rect width="113" height="40" fill="white"/>
</clipPath>
<clipPath id="clip1_22_9">
<rect width="113.725" height="40" fill="white"/>
</clipPath>
<clipPath id="clip2_22_9">
<rect width="112.275" height="39.3946" fill="white" transform="translate(1.56863)"/>
</clipPath>
</defs>
</svg>
